PathFileType	4	(X/Y/Z)	C:/Users/beibeiliu/ov580/test_trc/User1\sequence.18_training_dense_right.trc
DataRate	CameraRate	NumFrames	NumMarkers	Units	OrigDataRate	OrigDataStartFrame	OrigNumFrames
120	120	18	19	mm	120	72	286
Frame#	Time	ThumbCMC			ThumbMCP			ThumbIP			ThumbTip			IndexMCP			IndexPIP			IndexTip			MiddleMCP			MiddlePIP			MiddleTip			RingMCP			RingPIP			RingTip			PinkyMCP			PinkyPIP			PinkyTip			BackHand1			BackHand2			BackHand3	
		X0	Y0	Z0	X1	Y1	Z1	X2	Y2	Z2	X3	Y3	Z3	X4	Y4	Z4	X5	Y5	Z5	X6	Y6	Z6	X7	Y7	Z7	X8	Y8	Z8	X9	Y9	Z9	X10	Y10	Z10	X11	Y11	Z11	X12	Y12	Z12	X13	Y13	Z13	X14	Y14	Z14	X15	Y15	Z15	X16	Y16	Z16	X17	Y17	Z17	X18	Y18	Z18	
71	0.591667	187.398	57.4879	53.4209	182.564	76.0204	16.8927	167.902	61.3692	-10.0167	143.643	42.482	-17.3187	204.395	28.8928	-24.401	185.026	48.664	-43.0331	179.406	69.4298	-18.3311	190.966	10.0655	-33.2028	177.011	31.8024	-52.4511	164.381	53.2067	-17.6027	169.348	-0.0592258	-26.9908	153.371	20.324	-44.5333	146.467	40.5373	-14.248	148.053	-6.70095	-9.82399	145.687	10.6973	-32.5962	136.856	36.5577	-19.3996	166.742	-7.64019	36.5939	161.473	-1.22927	71.5696	190.902	17.871	55.7794	
72	0.6	187.954	53.4484	56.9855	185.214	68.9842	15.7939	170.976	57.8795	-9.96445	146.462	41.3102	-14.7302	203.701	20.896	-20.8255	187.754	44.0226	-43.4978	180.939	63.0527	-14.9061	188.615	4.37469	-31.379	173.393	28.0417	-50.8117	165.286	49.2651	-20.3467	168.548	-4.18419	-24.5518	156.853	21.8895	-44.0596	145.226	36.3603	-15.1322	147.917	-8.22981	-8.62216	143.664	12.3319	-31.5667	134.214	38.4735	-15.4616	164.95	-10.3423	36.6893	158.934	-7.09834	66.6356	193.316	12.7807	52.0395	
73	0.608333	190.646	48.0471	53.9485	189.105	68.3995	16.4791	173.38	56.3741	-8.64922	149.735	40.9167	-16.013	205.913	15.8726	-21.3278	195.559	38.3739	-43.8904	185.112	59.7092	-18.3023	189.441	-0.20811	-29.7376	177.327	21.8166	-50.2432	167.048	45.7634	-20.0216	167.961	-6.62979	-23.4711	153.328	18.6396	-44.1735	146.977	35.1721	-14.7588	144.681	-10.8074	-9.23768	140.202	8.19265	-33.1753	135.935	37.8943	-14.8643	164.125	-10.6785	34.9138	156.634	-6.64284	70.1075	190.443	9.32785	56.07	
74	0.616667	190.103	44.2229	55.5125	189.496	59.5097	16.9957	175.805	52.3353	-7.48625	150.86	37.4044	-14.1193	205.776	10.616	-20.048	194.672	33.885	-42.7203	184.298	52.5775	-15.2254	188.4	-4.82674	-29.157	175.425	19.3002	-48.8746	165.495	41.0595	-19.8428	165.541	-11.3263	-22.7611	153.129	17.9182	-41.5685	147.577	32.9526	-16.2829	143.181	-13.7176	-8.99101	140.945	8.02279	-32.5476	139.588	34.1018	-13.1688	159.674	-16.3626	34.5581	153.767	-9.41057	71.3385	189.981	2.17992	53.592	
75	0.625	191.366	40.0817	55.6847	192.072	57.6719	18.8458	178.324	50.4	-7.92437	149.236	33.1883	-18.623	204.789	5.59792	-21.0291	194.728	27.8343	-40.9082	189.306	50.2109	-14.5976	189.01	-9.76171	-24.5642	178.883	16.6032	-48.4408	168.132	37.4019	-14.5594	163.139	-14.1169	-26.7695	156.755	10.8446	-43.0077	148.562	29.1546	-14.2179	141.158	-16.3986	-7.24759	140.085	1.19377	-32.2019	137.578	31.8766	-13.7527	156.897	-19.637	36.2052	150.784	-11.5377	71.1255	189.986	-2.27683	55.7448	
76	0.633333	190.516	36.0989	58.5504	193.017	49.908	16.7437	178.22	43.7006	-7.47649	149.877	32.2096	-19.1536	202.084	-2.01522	-15.8645	197.857	21.8621	-40.7601	188.284	44.6898	-9.79136	187.61	-14.7993	-25.1693	177.42	10.9774	-47.7777	170.108	33.4176	-17.6303	163.891	-17.2458	-21.627	154.95	10.7	-41.2522	149.034	26.3188	-13.6403	141.304	-17.5337	-7.11636	141.184	0.0817768	-30.8563	141.246	29.913	-11.2564	155.177	-19.2693	41.4988	147.528	-17.9391	70.1062	183.947	-5.20762	61.194	
77	0.641667	191.704	32.326	58.7265	191.796	46.6622	21.346	179.818	40.2603	-6.35295	150.065	29.5032	-16.886	205.956	-4.96931	-18.9906	196.872	18.2424	-38.3136	188.509	39.5569	-10.079	184.373	-18.8563	-25.1654	181.013	6.47276	-46.334	168.107	29.1702	-15.4645	159.085	-21.4769	-26.0767	158.058	5.44969	-40.7833	151.925	25.0761	-14.7135	135.25	-20.0378	-8.40434	137.723	1.01727	-30.9483	137.366	28.5413	-10.0176	152.708	-22.2018	38.629	143.501	-17.689	69.3491	179.77	-9.68426	58.7027	
78	0.65	190.767	29.8285	60.7545	193.729	45.161	21.681	178.761	34.2687	-10.7244	149.598	22.963	-12.4297	201.293	-9.50824	-13.6294	198.374	13.6821	-38.1218	189.16	35.3481	-9.34215	182.863	-23.4954	-20.3836	175.685	0.993488	-45.9529	168.733	25.5656	-15.8938	157.259	-24.5216	-23.0499	152.306	3.4099	-40.5932	149.565	20.153	-12.1037	135.294	-21.9945	-11.0926	136.391	-3.06814	-31.4352	140.444	26.0318	-13.4479	151.471	-26.2115	41.2946	145.164	-19.0466	74.5808	179.199	-12.621	58.9942	
79	0.658333	189.965	26.0996	59.2216	194.72	39.2808	20.3591	179.152	32.7521	-3.1872	151.473	20.7081	-11.4921	203.598	-13.1458	-16.3811	194.115	10.5516	-36.446	192.994	31.8898	-9.22236	182.835	-26.4771	-20.2073	177.407	-2.23895	-44.6197	170.348	22.5718	-9.97932	157.906	-27.0151	-18.2088	154.797	0.580676	-39.8507	149.235	17.1009	-9.48191	132.55	-24.9934	-9.88983	140.365	-4.70924	-28.5294	137.985	25.73	-11.7779	148.624	-27.613	43.4523	143.522	-20.7279	73.0313	177.783	-13.1684	61.8682	
80	0.666667	189.031	22.671	61.1986	194.182	34.1702	19.0889	178.867	27.6809	-6.05569	149.055	19.655	-16.1094	199.429	-19.5741	-15.4468	196.341	5.75239	-36.0154	190.959	27.7772	-7.90701	179.487	-29.4676	-21.5635	174.367	-3.58921	-43.3764	170.263	19.4028	-11.0683	156.136	-30.8161	-18.3449	155.19	-4.57087	-39.0308	150.024	15.5761	-10.5908	134.098	-26.4914	-7.7965	136.813	-4.64684	-29.4952	137.068	22.1142	-8.42274	147.605	-29.4936	43.8326	139.336	-21.1825	73.2826	175.559	-15.7767	62.6266	
81	0.675	188.436	19.8589	60.2674	193.696	31.9348	20.7683	180.23	25.2075	-6.42561	151.699	16.1954	-10.568	202.08	-22.2459	-13.9555	197.51	1.95122	-34.6502	193.031	24.7215	-5.66454	177.596	-33.8784	-23.8801	174.203	-3.95497	-40.7029	171.283	15.6704	-8.86491	154.42	-33.5083	-20.9039	156.09	-4.15024	-38.5325	146.546	12.6983	-9.62587	132.666	-28.2684	-9.97371	135.815	-6.86052	-29.9516	139.337	20.1352	-10.9371	143.977	-30.5336	44.9361	133.564	-23.634	74.4584	170.632	-20.7651	61.859	
82	0.683333	190.869	17.5862	59.5209	194.238	27.9855	20.823	178.886	18.9777	-5.57436	150.796	12.122	-11.6123	197.597	-26.1932	-14.861	195.314	-3.39359	-34.7872	189.699	18.8657	-9.06606	178.426	-36.8751	-20.091	179.451	-12.4753	-42.646	170.693	12.5706	-7.42695	155.143	-36.3963	-21.151	156.021	-7.61809	-37.4221	149.262	9.51848	-12.6699	132.026	-31.4962	-6.34351	135.562	-10.9806	-30.0604	140.558	15.8979	-13.287	143.153	-35.8326	40.7533	136.483	-27.2423	72.759	172.661	-23.2154	60.1324	
83	0.691667	186.379	14.053	61.4981	195.159	25.1265	20.4031	181.784	17.994	-4.85979	151.733	9.70338	-13.3627	196.501	-31.1249	-11.0461	196.581	-6.45338	-35.7602	193.882	18.0129	-9.366	175.569	-42.1773	-18.5166	176.188	-17.5457	-42.9006	170.417	9.72989	-14.2956	155.265	-39.9325	-15.983	153.155	-17.2093	-39.4949	151.431	7.84549	-13.1451	131.859	-34.7977	-8.95638	137.489	-15.0603	-29.2337	141.333	11.7602	-17.5777	140.346	-38.4415	43.1839	131.138	-26.9401	75.9581	171.394	-27.0805	62.6575	
84	0.7	186.287	12.0515	61.9804	194.04	20.7576	23.875	182.643	14.7932	-6.21465	155.234	9.31029	-12.0705	200.976	-34.9111	-10.8599	194.153	-14.965	-36.7884	191.3	13.9111	-16.5958	176.799	-44.7101	-16.0188	176.045	-21.4955	-45.2215	167.018	8.28289	-20.0467	156.018	-45.3858	-17.8713	149.492	-23.6528	-42.3176	151.422	3.76597	-22.0789	127.653	-38.4968	-2.08784	131.219	-26.4395	-31.9749	141.594	3.6485	-25.9382	145.718	-39.6815	42.4758	133.82	-30.8377	74.0375	170.083	-28.4985	60.9314	
85	0.708333	186.745	9.6929	61.2797	196.287	22.2138	25.3333	183.357	14.9868	-2.26117	157.324	11.701	-15.7815	198.033	-38.4661	-5.93697	196.561	-27.8793	-38.5123	191.283	8.09939	-30.1598	178.248	-50.284	-17.8302	174.637	-35.639	-46.7384	168.621	5.21452	-33.8761	149.677	-50.7699	-16.0285	152.887	-35.225	-43.2604	146.102	-1.34948	-33.7821	126.175	-41.567	-4.73234	127.938	-34.3421	-31.2426	140.179	-2.60453	-35.0921	143.639	-38.9815	45.6242	132.528	-29.2147	76.8835	168.38	-28.1876	65.1482	
86	0.716667	189.244	9.09848	61.676	199.079	25.8135	27.7724	189.705	19.8818	-4.75457	161.93	16.8118	-17.9159	199.515	-43.553	-5.6852	198.508	-40.2074	-35.6842	190.199	-2.72938	-45.6739	175.294	-55.5348	-13.3673	175.25	-45.7022	-48.6519	170.382	-5.50565	-51.1586	150.197	-55.9003	-14.9135	153.557	-43.9048	-45.529	151.142	-10.3032	-48.184	124.651	-43.1372	-2.94595	126.277	-40.3019	-31.1948	134.982	-18.394	-48.3388	143.399	-41.0361	42.985	133.858	-35.0576	76.663	171.805	-31.731	62.1763	
87	0.725	188.798	8.61436	64.5747	200.434	23.5342	28.0809	193.778	24.573	-2.84231	165.223	18.7525	-17.9964	198.84	-45.4788	-3.78915	201.464	-47.6079	-33.8471	199.115	-23.6002	-57.7045	176.964	-59.2587	-13.3454	179.041	-55.9601	-45.8895	169.326	-26.1274	-66.5776	151.548	-58.6072	-11.7955	149.684	-54.9343	-44.9066	148.746	-28.8961	-61.5186	119.992	-45.0051	-2.49695	119.598	-44.5139	-28.2506	122.676	-30.2903	-55.0411	142.414	-44.223	45.7644	135.727	-35.1055	74.4059	171.077	-30.2658	64.0632	
88	0.733333	189.449	7.06772	66.2092	204.102	26.364	32.4609	197.25	26.4671	3.86793	173.649	23.4588	-15.2199	198.073	-45.3915	-3.26633	202.327	-51.7465	-36.2199	202.16	-35.516	-63.9545	172.043	-62.1521	-12.3104	174.797	-64.5922	-43.21	171.743	-44.2472	-75.3104	152.724	-59.5612	-12.1714	150.789	-61.8831	-44.4884	144.717	-44.322	-70.3797	120.643	-45.6998	-1.37146	112.688	-47.334	-26.9627	113.735	-43.6406	-55.7939	145.595	-44.3289	41.6562	138.602	-37.5377	73.8071	173.522	-32.9027	62.4967	
